<svg width="400" height="400" viewBox="0 0 400 400" fill="none" xmlns="http://www.w3.org/2000/svg">
<rect width="400" height="400" fill="white"/>
<rect x="20" y="10" width="20" height="370" fill="#FF0000"/>
<rect x="40" y="10" width="20" height="370" fill="#FF0000" fill-opacity="0.5"/>
<rect x="60" y="10" width="20" height="370" fill="#FF0000" fill-opacity="0.1"/>
<rect x="110" y="10" width="20" height="370" fill="#00FF00"/>
<rect x="130" y="10" width="20" height="370" fill="#00FF00" fill-opacity="0.5"/>
<rect x="150" y="10" width="20" height="370" fill="#00FF00" fill-opacity="0.1"/>
<rect x="200" y="10" width="20" height="370" fill="#0000FF"/>
<rect x="220" y="10" width="20" height="370" fill="#0000FF" fill-opacity="0.5"/>
<rect x="240" y="10" width="20" height="370" fill="#0000FF" fill-opacity="0.1"/>
<rect x="290" y="10" width="20" height="370" fill="#808080"/>
<rect x="310" y="10" width="20" height="370" fill="#808080" fill-opacity="0.5"/>
<rect x="330" y="10" width="20" height="370" fill="#808080" fill-opacity="0.1"/>
<g style="mix-blend-mode:darken">
<rect x="10" y="20" width="370" height="5" fill="#FF0000"/>
</g>
<g style="mix-blend-mode:darken">
<rect x="10" y="25" width="370" height="5" fill="#00FF00"/>
</g>
<g style="mix-blend-mode:darken">
<rect x="10" y="30" width="370" height="5" fill="#0000FF"/>
</g>
<g style="mix-blend-mode:multiply">
<rect x="10" y="40" width="370" height="5" fill="#FF0000"/>
</g>
<g style="mix-blend-mode:multiply">
<rect x="10" y="45" width="370" height="5" fill="#00FF00"/>
</g>
<g style="mix-blend-mode:multiply">
<rect x="10" y="50" width="370" height="5" fill="#0000FF"/>
</g>
<g style="mix-blend-mode:color-burn">
<rect x="10" y="60" width="370" height="5" fill="#FF0000"/>
</g>
<g style="mix-blend-mode:color-burn">
<rect x="10" y="65" width="370" height="5" fill="#00FF00"/>
</g>
<g style="mix-blend-mode:color-burn">
<rect x="10" y="70" width="370" height="5" fill="#0000FF"/>
</g>
<g style="mix-blend-mode:lighten">
<rect x="10" y="80" width="370" height="5" fill="#FF0000"/>
</g>
<g style="mix-blend-mode:lighten">
<rect x="10" y="85" width="370" height="5" fill="#00FF00"/>
</g>
<g style="mix-blend-mode:lighten">
<rect x="10" y="90" width="370" height="5" fill="#0000FF"/>
</g>
<g style="mix-blend-mode:screen">
<rect x="10" y="100" width="370" height="5" fill="#FF0000"/>
</g>
<g style="mix-blend-mode:screen">
<rect x="10" y="105" width="370" height="5" fill="#00FF00"/>
</g>
<g style="mix-blend-mode:screen">
<rect x="10" y="110" width="370" height="5" fill="#0000FF"/>
</g>
<g style="mix-blend-mode:color-dodge">
<rect x="10" y="120" width="370" height="5" fill="#FF0000"/>
</g>
<g style="mix-blend-mode:color-dodge">
<rect x="10" y="125" width="370" height="5" fill="#00FF00"/>
</g>
<g style="mix-blend-mode:color-dodge">
<rect x="10" y="130" width="370" height="5" fill="#0000FF"/>
</g>
<g style="mix-blend-mode:overlay">
<rect x="10" y="140" width="370" height="5" fill="#FF0000"/>
</g>
<g style="mix-blend-mode:overlay">
<rect x="10" y="145" width="370" height="5" fill="#00FF00"/>
</g>
<g style="mix-blend-mode:overlay">
<rect x="10" y="150" width="370" height="5" fill="#0000FF"/>
</g>
<g style="mix-blend-mode:soft-light">
<rect x="10" y="160" width="370" height="5" fill="#FF0000"/>
</g>
<g style="mix-blend-mode:soft-light">
<rect x="10" y="165" width="370" height="5" fill="#00FF00"/>
</g>
<g style="mix-blend-mode:soft-light">
<rect x="10" y="170" width="370" height="5" fill="#0000FF"/>
</g>
<g style="mix-blend-mode:hard-light">
<rect x="10" y="180" width="370" height="5" fill="#FF0000"/>
</g>
<g style="mix-blend-mode:difference">
<rect x="10" y="200" width="370" height="5" fill="#FF0000"/>
</g>
<g style="mix-blend-mode:exclusion">
<rect x="10" y="220" width="370" height="5" fill="#FF0000"/>
</g>
<g style="mix-blend-mode:hue">
<rect x="10" y="240" width="370" height="5" fill="#FF0000"/>
</g>
<g style="mix-blend-mode:saturation">
<rect x="10" y="260" width="370" height="5" fill="#FF0000"/>
</g>
<g style="mix-blend-mode:color">
<rect x="10" y="280" width="370" height="5" fill="#FF0000"/>
</g>
<g style="mix-blend-mode:luminosity">
<rect x="10" y="300" width="370" height="5" fill="#FF0000"/>
</g>
<g style="mix-blend-mode:hard-light">
<rect x="10" y="185" width="370" height="5" fill="#00FF00"/>
</g>
<g style="mix-blend-mode:difference">
<rect x="10" y="205" width="370" height="5" fill="#00FF00"/>
</g>
<g style="mix-blend-mode:exclusion">
<rect x="10" y="225" width="370" height="5" fill="#00FF00"/>
</g>
<g style="mix-blend-mode:hue">
<rect x="10" y="245" width="370" height="5" fill="#00FF00"/>
</g>
<g style="mix-blend-mode:saturation">
<rect x="10" y="265" width="370" height="5" fill="#00FF00"/>
</g>
<g style="mix-blend-mode:color">
<rect x="10" y="285" width="370" height="5" fill="#00FF00"/>
</g>
<g style="mix-blend-mode:luminosity">
<rect x="10" y="305" width="370" height="5" fill="#00FF00"/>
</g>
<g style="mix-blend-mode:hard-light">
<rect x="10" y="190" width="370" height="5" fill="#0000FF"/>
</g>
<g style="mix-blend-mode:difference">
<rect x="10" y="210" width="370" height="5" fill="#0000FF"/>
</g>
<g style="mix-blend-mode:exclusion">
<rect x="10" y="230" width="370" height="5" fill="#0000FF"/>
</g>
<g style="mix-blend-mode:hue">
<rect x="10" y="250" width="370" height="5" fill="#0000FF"/>
</g>
<g style="mix-blend-mode:saturation">
<rect x="10" y="270" width="370" height="5" fill="#0000FF"/>
</g>
<g style="mix-blend-mode:color">
<rect x="10" y="290" width="370" height="5" fill="#0000FF"/>
</g>
<g style="mix-blend-mode:luminosity">
<rect x="10" y="310" width="370" height="5" fill="#0000FF"/>
</g>
</svg>
